<svg xmlns="http://www.w3.org/2000/svg" xmlns:xlink="http://www.w3.org/1999/xlink" width="30" height="30" viewBox="0 0 30 30"><defs><clipPath id="a"><path d="M18,16H2a2,2,0,0,1-2-2L.01,2A2,2,0,0,1,2,0H18a2,2,0,0,1,2,2V14A2,2,0,0,1,18,16ZM2,2V4l8,5,8-5V2L10,7Z" transform="translate(0 0)" fill="none"/></clipPath></defs><g transform="translate(0 0)"><rect width="30" height="30" fill="rgba(0,0,0,0)"/><path d="M18,16H2a2,2,0,0,1-2-2L.01,2A2,2,0,0,1,2,0H18a2,2,0,0,1,2,2V14A2,2,0,0,1,18,16ZM2,2V4l8,5,8-5V2L10,7Z" transform="translate(5 7)" fill="none"/><g transform="translate(5 7)" clip-path="url(#a)"><g transform="translate(-2 -4)"><rect width="24" height="24" fill="rgba(0,0,0,0)"/><rect width="24" height="24" fill="#d8d8d8"/></g></g></g></svg>