<svg xmlns="http://www.w3.org/2000/svg" xmlns:xlink="http://www.w3.org/1999/xlink" width="20" height="20" viewBox="0 0 20 20">
  <defs>
    <clipPath id="clip-path">
      <path id="instagram_icon" data-name="instagram icon" d="M10,20c-2.7,0-3.055-.015-4.1-.06H5.873a7.314,7.314,0,0,1-2.426-.464,4.9,4.9,0,0,1-1.77-1.151A4.881,4.881,0,0,1,.526,16.554a7.3,7.3,0,0,1-.463-2.427C.008,13.049,0,12.715,0,10S.016,6.927.062,5.883v-.01A7.279,7.279,0,0,1,.526,3.447a4.9,4.9,0,0,1,1.151-1.77A4.9,4.9,0,0,1,3.447.526,7.288,7.288,0,0,1,5.873.062C6.951.008,7.285,0,10,0s3.068.015,4.116.061h.011a7.291,7.291,0,0,1,2.427.463,4.881,4.881,0,0,1,1.769,1.151,4.9,4.9,0,0,1,1.151,1.77,7.3,7.3,0,0,1,.464,2.426C19.992,6.938,20,7.271,20,10c0,2.7-.015,3.055-.06,4.1v.023a7.3,7.3,0,0,1-.464,2.427,5.1,5.1,0,0,1-2.92,2.92,7.313,7.313,0,0,1-2.427.464C13.062,19.992,12.729,20,10,20ZM10,2.5c-2.433,0-2.722.013-3.679.056H6.306a5,5,0,0,0-1.695.318,2.856,2.856,0,0,0-1.052.685,2.825,2.825,0,0,0-.685,1.052,4.984,4.984,0,0,0-.318,1.695C2.507,7.27,2.5,7.568,2.5,10s.013,2.722.056,3.679v.015a5,5,0,0,0,.318,1.695,3.04,3.04,0,0,0,1.737,1.738,5,5,0,0,0,1.695.318c.96.049,1.228.056,3.694.056,2.428,0,2.739-.014,3.663-.055h.031a5.049,5.049,0,0,0,1.695-.318,3.045,3.045,0,0,0,1.738-1.738,5,5,0,0,0,.318-1.695v-.011c.041-.932.055-1.246.055-3.683s-.014-2.741-.055-3.671V6.306a5.049,5.049,0,0,0-.318-1.695,2.863,2.863,0,0,0-.686-1.052,2.835,2.835,0,0,0-1.052-.685,4.984,4.984,0,0,0-1.695-.318C12.73,2.507,12.431,2.5,10,2.5ZM10,15a5,5,0,1,1,5-5A5.006,5.006,0,0,1,10,15Zm0-7.5A2.5,2.5,0,1,0,12.5,10,2.5,2.5,0,0,0,10,7.5Zm5-1.25A1.25,1.25,0,1,1,16.25,5,1.251,1.251,0,0,1,15,6.25Z" transform="translate(5 5)" fill="none"/>
    </clipPath>
  </defs>
  <g id="_3._Icons_2.5_Social_ic_facebook" data-name="3. Icons/2.5 Social/ic_facebook" transform="translate(-5 -5)">
    <path id="instagram_icon-2" data-name="instagram icon" d="M10,20c-2.7,0-3.055-.015-4.1-.06H5.873a7.314,7.314,0,0,1-2.426-.464,4.9,4.9,0,0,1-1.77-1.151A4.881,4.881,0,0,1,.526,16.554a7.3,7.3,0,0,1-.463-2.427C.008,13.049,0,12.715,0,10S.016,6.927.062,5.883v-.01A7.279,7.279,0,0,1,.526,3.447a4.9,4.9,0,0,1,1.151-1.77A4.9,4.9,0,0,1,3.447.526,7.288,7.288,0,0,1,5.873.062C6.951.008,7.285,0,10,0s3.068.015,4.116.061h.011a7.291,7.291,0,0,1,2.427.463,4.881,4.881,0,0,1,1.769,1.151,4.9,4.9,0,0,1,1.151,1.77,7.3,7.3,0,0,1,.464,2.426C19.992,6.938,20,7.271,20,10c0,2.7-.015,3.055-.06,4.1v.023a7.3,7.3,0,0,1-.464,2.427,5.1,5.1,0,0,1-2.92,2.92,7.313,7.313,0,0,1-2.427.464C13.062,19.992,12.729,20,10,20ZM10,2.5c-2.433,0-2.722.013-3.679.056H6.306a5,5,0,0,0-1.695.318,2.856,2.856,0,0,0-1.052.685,2.825,2.825,0,0,0-.685,1.052,4.984,4.984,0,0,0-.318,1.695C2.507,7.27,2.5,7.568,2.5,10s.013,2.722.056,3.679v.015a5,5,0,0,0,.318,1.695,3.04,3.04,0,0,0,1.737,1.738,5,5,0,0,0,1.695.318c.96.049,1.228.056,3.694.056,2.428,0,2.739-.014,3.663-.055h.031a5.049,5.049,0,0,0,1.695-.318,3.045,3.045,0,0,0,1.738-1.738,5,5,0,0,0,.318-1.695v-.011c.041-.932.055-1.246.055-3.683s-.014-2.741-.055-3.671V6.306a5.049,5.049,0,0,0-.318-1.695,2.863,2.863,0,0,0-.686-1.052,2.835,2.835,0,0,0-1.052-.685,4.984,4.984,0,0,0-1.695-.318C12.73,2.507,12.431,2.5,10,2.5ZM10,15a5,5,0,1,1,5-5A5.006,5.006,0,0,1,10,15Zm0-7.5A2.5,2.5,0,1,0,12.5,10,2.5,2.5,0,0,0,10,7.5Zm5-1.25A1.25,1.25,0,1,1,16.25,5,1.251,1.251,0,0,1,15,6.25Z" transform="translate(5 5)" fill="none"/>
    <g clip-path="url(#clip-path)">
      <g id="_Color_Icon" data-name="↳ Color Icon" transform="translate(3 3)">
        <rect id="_Color_Icon_background" data-name="↳ Color Icon background" width="24" height="24" fill="rgba(0,0,0,0)"/>
        <rect id="Gray_85" data-name="Gray 85" width="24" height="24" fill="#d8d8d8"/>
      </g>
    </g>
  </g>
</svg>
