<svg xmlns="http://www.w3.org/2000/svg" width="13.416" height="13.415" viewBox="0 0 13.416 13.415">
  <g id="_3._Icons_2.5_Social_ic_facebook" data-name="3. Icons/2.5 Social/ic_facebook" transform="translate(-8.585 -8)">
    <path id="Linked_Icon" d="M10.732,13.415V9.061c0-1.045-.106-2.378-1.546-2.378S7.522,7.81,7.522,8.979v4.436H4.913V4.469H7.407v1.21h.041a2.79,2.79,0,0,1,2.625-1.21c2.289,0,3.062,1.053,3.268,2.749A10.53,10.53,0,0,1,13.415,8.5v4.914ZM0,13.415V4.469H3.128v8.946ZM0,1.564A1.564,1.564,0,1,1,1.564,3.128,1.563,1.563,0,0,1,0,1.564Z" transform="translate(8.585 8)" fill="#d8d8d8"/>
  </g>
</svg>
