<svg xmlns="http://www.w3.org/2000/svg" xmlns:xlink="http://www.w3.org/1999/xlink" width="30" height="30" viewBox="0 0 30 30"><defs><clipPath id="a"><path d="M17,18H3a2,2,0,0,1-2-2l.01-4H8v1h4V12h7v4A2,2,0,0,1,17,18ZM8,11H2A2,2,0,0,1,0,9V6A2,2,0,0,1,2,4H5.99V2l2-2h4l2,2V4H18a2,2,0,0,1,2,2V9a2,2,0,0,1-2,2H12V9H8v2ZM8,2V4h4V2H8Z" transform="translate(0 0)" fill="none"/></clipPath></defs><g transform="translate(0 0)"><rect width="30" height="30" fill="rgba(0,0,0,0)"/><path d="M17,18H3a2,2,0,0,1-2-2l.01-4H8v1h4V12h7v4A2,2,0,0,1,17,18ZM8,11H2A2,2,0,0,1,0,9V6A2,2,0,0,1,2,4H5.99V2l2-2h4l2,2V4H18a2,2,0,0,1,2,2V9a2,2,0,0,1-2,2H12V9H8v2ZM8,2V4h4V2H8Z" transform="translate(5 6)" fill="none"/><g transform="translate(5 6)" clip-path="url(#a)"><g transform="translate(-3 -4)"><rect width="26" height="26" fill="rgba(0,0,0,0)"/><rect width="26" height="26" fill="#d8d8d8"/></g></g></g></svg>