<svg xmlns="http://www.w3.org/2000/svg" xmlns:xlink="http://www.w3.org/1999/xlink" width="18" height="15" viewBox="0 0 18 15">
  <defs>
    <clipPath id="clip-path">
      <path id="twitter_icon" data-name="twitter icon" d="M18,1.775a7.189,7.189,0,0,1-2.121.6A3.785,3.785,0,0,0,17.5.277a7.285,7.285,0,0,1-2.345.918,3.649,3.649,0,0,0-2.7-1.2A3.74,3.74,0,0,0,8.769,3.786a3.891,3.891,0,0,0,.1.863A10.4,10.4,0,0,1,1.252.693,3.857,3.857,0,0,0,2.4,5.749,3.613,3.613,0,0,1,.723,5.275c0,.016,0,.032,0,.047A3.766,3.766,0,0,0,3.685,9.036,3.621,3.621,0,0,1,2.018,9.1a3.711,3.711,0,0,0,3.449,2.63A7.3,7.3,0,0,1,0,13.3,10.273,10.273,0,0,0,5.661,15c6.792,0,10.507-5.77,10.507-10.774,0-.164,0-.328-.011-.49A7.6,7.6,0,0,0,18,1.775Z" transform="translate(6 8)" fill="none"/>
    </clipPath>
  </defs>
  <g id="_3._Icons_2.5_Social_ic_facebook" data-name="3. Icons/2.5 Social/ic_facebook" transform="translate(-6 -8)">
    <path id="twitter_icon-2" data-name="twitter icon" d="M18,1.775a7.189,7.189,0,0,1-2.121.6A3.785,3.785,0,0,0,17.5.277a7.285,7.285,0,0,1-2.345.918,3.649,3.649,0,0,0-2.7-1.2A3.74,3.74,0,0,0,8.769,3.786a3.891,3.891,0,0,0,.1.863A10.4,10.4,0,0,1,1.252.693,3.857,3.857,0,0,0,2.4,5.749,3.613,3.613,0,0,1,.723,5.275c0,.016,0,.032,0,.047A3.766,3.766,0,0,0,3.685,9.036,3.621,3.621,0,0,1,2.018,9.1a3.711,3.711,0,0,0,3.449,2.63A7.3,7.3,0,0,1,0,13.3,10.273,10.273,0,0,0,5.661,15c6.792,0,10.507-5.77,10.507-10.774,0-.164,0-.328-.011-.49A7.6,7.6,0,0,0,18,1.775Z" transform="translate(6 8)" fill="none"/>
    <g clip-path="url(#clip-path)">
      <g id="_Color_Icon" data-name="↳ Color Icon" transform="translate(3 3)">
        <rect id="_Color_Icon_background" data-name="↳ Color Icon background" width="24" height="24" fill="rgba(0,0,0,0)"/>
        <rect id="Gray_85" data-name="Gray 85" width="24" height="24" fill="#d8d8d8"/>
      </g>
    </g>
  </g>
</svg>
