<svg xmlns="http://www.w3.org/2000/svg" xmlns:xlink="http://www.w3.org/1999/xlink" width="30" height="30" viewBox="0 0 30 30"><defs><clipPath id="a"><path d="M16,16H0V14c0-2.627,5.208-4,8-4s8,1.374,8,4v2ZM8,8a4,4,0,1,1,4-4A4.005,4.005,0,0,1,8,8Z" transform="translate(0 0)" fill="none"/></clipPath></defs><g transform="translate(0 0)"><rect width="30" height="30" fill="rgba(0,0,0,0)"/><path d="M16,16H0V14c0-2.627,5.208-4,8-4s8,1.374,8,4v2ZM8,8a4,4,0,1,1,4-4A4.005,4.005,0,0,1,8,8Z" transform="translate(7 7)" fill="none"/><g transform="translate(7 7)" clip-path="url(#a)"><g transform="translate(-4 -4)"><rect width="24" height="24" fill="rgba(0,0,0,0)"/><rect width="24" height="24" fill="#d8d8d8"/></g></g></g></svg>