<svg xmlns="http://www.w3.org/2000/svg" xmlns:xlink="http://www.w3.org/1999/xlink" width="30" height="30">
	<defs>
		<clipPath id="clip_0">
			<path d="M22.1593 15.98C22.1993 15.66 22.2293 15.34 22.2293 15C22.2293 14.66 22.1993 14.34 22.1593 14.02L24.2693 12.37C24.4593 12.22 24.5093 11.95 24.3893 11.73L22.3893 8.27C22.2693 8.05 21.9993 7.97 21.7793 8.05L19.2893 9.05C18.7693 8.65 18.2093 8.32 17.5993 8.07L17.2193 5.42C17.1893 5.18 16.9793 5 16.7293 5L12.7293 5C12.4793 5 12.2693 5.18 12.2393 5.42L11.8593 8.07C11.2493 8.32 10.6893 8.66 10.1693 9.05L7.67933 8.05C7.44933 7.96 7.18933 8.05 7.06933 8.27L5.06933 11.73C4.93933 11.95 4.99933 12.22 5.18933 12.37L7.29933 14.02C7.25933 14.34 7.22933 14.67 7.22933 15C7.22933 15.33 7.25933 15.66 7.29933 15.98L5.18933 17.63C4.99933 17.78 4.94933 18.05 5.06933 18.27L7.06933 21.73C7.18933 21.95 7.45933 22.03 7.67933 21.95L10.1693 20.95C10.6893 21.35 11.2493 21.68 11.8593 21.93L12.2393 24.58C12.2693 24.82 12.4793 25 12.7293 25L16.7293 25C16.9793 25 17.1893 24.82 17.2193 24.58L17.5993 21.93C18.2093 21.68 18.7693 21.34 19.2893 20.95L21.7793 21.95C22.0093 22.04 22.2693 21.95 22.3893 21.73L24.3893 18.27C24.5093 18.05 24.4593 17.78 24.2693 17.63L22.1593 15.98ZM14.7293 18.5C12.7993 18.5 11.2293 16.93 11.2293 15C11.2293 13.07 12.7993 11.5 14.7293 11.5C16.6593 11.5 18.2293 13.07 18.2293 15C18.2293 16.93 16.6593 18.5 14.7293 18.5Z" clip-rule="evenodd"/>
		</clipPath>
	</defs>
	<g clip-path="url(#clip_0)">
		<path fill="rgb(255,255,255)" stroke="none" transform="translate(2 2)" d="M0 0L26 0L26 26L0 26L0 0Z"/>
	</g>

</svg>